<svg width="26" height="30" viewBox="0 0 26 30" fill="none" xmlns="http://www.w3.org/2000/svg">
<path d="M20.5673 2.99729C20.0852 2.71768 19.4693 2.88312 19.1897 3.36714L18.1821 5.11062L21.6733 7.12577L22.6809 5.38229C22.9584 4.89827 22.7932 4.28425 22.3111 4.00464L20.5673 2.99729Z" fill="#319F1C"/>
<path d="M5.31299 2.99719L3.56946 4.00479C3.08735 4.28439 2.92211 4.89822 3.19941 5.38243L4.20696 7.12596L7.69824 5.11081L6.69064 3.36734C6.41103 2.88302 5.7951 2.71778 5.31299 2.99719Z" fill="#319F1C"/>
<path d="M12.9999 4.53725C13.6372 4.53725 14.2597 4.59961 14.8749 4.6875V3.05672L16.164 3.04686V0.9375C16.164 0.419314 15.7447 0 15.2265 0H10.7832C10.265 0 9.8457 0.419314 9.8457 0.9375V3.04686L11.1249 3.05672V4.6875C11.7402 4.59961 12.3627 4.53725 12.9999 4.53725Z" fill="#319F1C"/>
<path d="M13.0001 9.97559C8.6719 9.97559 5.16309 13.4842 5.16309 17.8126C5.16309 22.141 8.67166 25.6496 13.0001 25.6496C17.3285 25.6496 20.8371 22.1408 20.8371 17.8126C20.8371 13.4844 17.3283 9.97559 13.0001 9.97559ZM14.1269 19.2486C13.6734 19.6621 12.7673 19.4069 12.1031 18.6786C11.4389 17.9502 11.2678 17.0244 11.7213 16.6109C12.1748 16.1975 16.2313 13.9611 17.4714 13.7827C17.1797 15.0011 14.5805 18.8351 14.1269 19.2486Z" fill="#319F1C"/>
<path d="M13 5.625C6.26902 5.625 0.8125 11.0815 0.8125 17.8125C0.8125 24.5435 6.26902 30 13 30C19.731 30 25.1875 24.5435 25.1875 17.8125C25.1875 11.0815 19.731 5.625 13 5.625ZM13 27.7012C7.53858 27.7012 3.11127 23.2739 3.11127 17.8125C3.11127 12.3511 7.53863 7.92353 13 7.92353C18.4614 7.92353 22.889 12.3511 22.889 17.8125C22.889 23.2739 18.4614 27.7012 13 27.7012Z" fill="#319F1C"/>
</svg>
