<svg width="30" height="28" viewBox="0 0 30 28" fill="none" xmlns="http://www.w3.org/2000/svg">
<path d="M23.6075 11.4165V0.0185547H6.39249V11.4165H0L15 27.9815L30 11.4165H23.6075ZM17.1545 16.3718C16.7983 16.7625 16.3634 17.0227 15.86 17.1466V18.2163H14.3293V17.1556C13.2136 16.8726 12.3835 15.9815 12.1353 14.7777L12.0936 14.5755L13.4968 13.7263L13.6016 14.0948C13.9235 15.2272 14.3421 15.6684 15.0947 15.6684C15.4943 15.6684 15.7806 15.5507 15.9959 15.2981C16.1602 15.0971 16.2455 14.8291 16.2455 14.5059C16.2455 13.9971 15.8935 13.6576 14.8507 13.161C14.1576 12.846 13.8289 12.645 13.3901 12.267C12.9001 11.8315 12.6734 11.2999 12.6734 10.5908C12.6734 9.50973 13.3431 8.59734 14.3294 8.2937V7.2232H15.8601V8.30252C16.5263 8.49728 17.048 8.95885 17.4133 9.67772L17.5325 9.91228L16.2106 10.7687L16.0581 10.4972C15.7116 9.87995 15.4078 9.75925 15.0001 9.75925C14.6134 9.75925 14.2988 10.095 14.2988 10.5079C14.2988 10.7843 14.3588 10.9915 14.6641 11.23L14.6808 11.2415C14.854 11.3605 14.991 11.4548 15.1019 11.5155L15.7378 11.8453C16.2058 12.0792 16.4512 12.2066 16.8679 12.5222C17.5329 13.0175 17.8333 13.6003 17.8705 14.4696L17.8708 14.4821C17.8708 15.2212 17.6298 15.8569 17.1545 16.3718Z" fill="#319F1C"/>
</svg>
