<svg width="35" height="35" viewBox="0 0 35 35" fill="none" xmlns="http://www.w3.org/2000/svg">
<path d="M26.885 21.1096L33.8047 28.0288C35.3978 29.6229 35.3991 32.2087 33.8047 33.8034C32.2094 35.398 29.6245 35.3974 28.0292 33.8034L21.1147 26.8885C22.2941 26.2081 23.3921 25.3688 24.3807 24.38C25.3794 23.3814 26.2134 22.2798 26.885 21.1096Z" fill="white"/>
<path d="M3.90004 3.89849C6.41421 1.38446 9.75774 0 13.3135 0C16.8695 0 20.2117 1.38517 22.7264 3.89969C27.9174 9.0906 27.9174 17.5361 22.7264 22.7265C20.2117 25.2417 16.8695 26.6267 13.3135 26.6267C9.75774 26.6267 6.4152 25.2416 3.90096 22.7271C1.38531 20.2133 6.48499e-05 16.8703 6.48499e-05 13.314C0.000135422 9.75754 1.38531 6.414 3.90004 3.89849ZM6.38114 20.2464C8.23333 22.0985 10.6951 23.1189 13.3135 23.1189C15.9319 23.1189 18.3941 22.0986 20.246 20.2464C24.0691 16.4234 24.0691 10.2028 20.246 6.37979C18.394 4.52823 15.9319 3.50804 13.3135 3.50804C10.6942 3.50804 8.23234 4.52774 6.38021 6.3793C4.52787 8.23199 3.50831 10.6945 3.50831 13.314C3.50824 15.9328 4.5278 18.3948 6.38114 20.2464Z" fill="white"/>
<path d="M8.80659 11.5594L11.5596 11.5596V8.8086C11.5596 7.83971 12.3449 7.05469 13.3133 7.05469C14.2817 7.05469 15.0674 7.83971 15.0674 8.8086V11.5599L17.8183 11.5601C18.7866 11.5601 19.5723 12.3456 19.5723 13.314C19.5723 14.2828 18.7866 15.0679 17.8183 15.0679L15.0674 15.0678V17.8187C15.0674 18.7877 14.2817 19.5728 13.3133 19.5728C12.3449 19.5728 11.5596 18.7877 11.5596 17.8187V15.0675L8.80659 15.0674C7.8382 15.0674 7.0524 14.2817 7.0524 13.3133C7.05247 12.3445 7.8382 11.5594 8.80659 11.5594Z" fill="white"/>
</svg>
