<svg width="28" height="24" viewBox="0 0 28 24" fill="none" xmlns="http://www.w3.org/2000/svg">
<path fill-rule="evenodd" clip-rule="evenodd" d="M5.38495 8.64079L4.16757 9.10532L3.76711 9.25749C3.35063 9.39365 2.94217 9.58587 2.52569 9.73804C1.99709 9.92225 0.971924 10.2907 0.971924 10.9714C0.971924 11.492 1.50854 11.5881 1.88496 11.7003L7.179 13.3261C8.10806 13.6064 7.85977 13.6785 8.34833 13.3902C9.22933 12.8536 10.0863 12.2689 10.9673 11.7403L13.2659 10.2987C13.4982 10.1545 13.6904 10.0184 13.9307 9.87419L22.124 4.71631C22.3403 4.58817 22.5806 4.40396 22.8449 4.41998C23.4856 4.45201 22.997 4.94858 22.7568 5.1408C22.4284 5.4051 22.116 5.72547 21.8037 5.99778L19.3929 8.2083L19.3769 8.22431L17.5188 9.93026C17.1584 10.2987 16.4616 10.8433 16.0851 11.2277L15.8529 11.452L14.4032 12.7655C14.0508 13.1179 13.5302 13.5264 13.2179 13.8467L12.9776 14.071L12.2728 14.7197C11.7602 15.2403 11.4879 15.1842 11.4959 15.801C11.4959 16.1614 11.3197 17.8993 11.2877 18.3158C11.2156 19.1808 11.1916 19.9977 11.1035 20.8627C11.0714 21.135 11.0394 21.3913 11.0394 21.7117C11.7602 21.6877 12.3529 21.071 12.8334 20.5984C12.9856 20.4382 13.1378 20.27 13.306 20.1259L13.4341 20.0138L14.4273 19.0446L14.4433 19.0286C14.6916 18.8044 15.036 18.4039 15.2682 18.2437L16.1572 18.9005C16.6778 19.325 17.7591 20.0778 18.3437 20.5183L21.3712 22.7689C21.6034 22.9291 22.14 23.1453 22.5085 23.1453C22.7648 23.1453 22.957 23.0252 23.1092 22.905C23.2613 22.7769 23.3654 22.5927 23.4535 22.4085C23.6858 21.944 24.2545 18.9806 24.3746 18.3639C24.3986 18.2437 24.4387 18.1236 24.4547 18.0275L26.7053 7.43942C26.8734 6.76665 26.9615 6.06185 27.1458 5.36505L27.2899 4.70831C27.4101 4.03554 27.8265 2.47376 27.8265 1.95317C27.8265 1.25637 27.4741 0.519531 26.7053 0.519531C26.1446 0.519531 24.767 1.17628 24.1583 1.40054L23.7499 1.5447L22.5085 2.02525L22.108 2.17742L14.7636 5.01265L14.3632 5.17284L12.7293 5.80556C12.457 5.92569 12.1767 5.99778 11.9124 6.1099L7.82774 7.6877L7.42728 7.84788C6.76252 8.13621 6.07374 8.37649 5.38495 8.64079Z" fill="#319F1C"/>
</svg>
