<svg width="28" height="35" viewBox="0 0 28 35" fill="none" xmlns="http://www.w3.org/2000/svg">
<path d="M9.92191 26.7827H11.9915L11.8089 26.0523C11.748 25.8088 11.5045 25.5653 11.2002 25.5653H10.348C9.37408 25.5653 8.46104 25.0784 7.85234 24.2871L5.96539 21.6697L3.65234 22.6436L8.88713 26.4175C9.1306 26.661 9.55669 26.7827 9.92191 26.7827Z" fill="#319F1C"/>
<path d="M18.8694 7.91309H7.91284C7.12154 7.91309 6.45197 8.40004 6.2085 9.13048H20.5737C20.3302 8.40004 19.6607 7.91309 18.8694 7.91309Z" fill="#319F1C"/>
<path d="M18.8694 6.69565C19.4781 6.69565 20.0868 6.87826 20.5737 7.24348C20.0868 4.68696 18.3215 2.49565 15.8259 1.64348V5.47826H14.6085V0.608696C14.6085 0.243478 14.365 0 13.9998 0H12.7824C12.4172 0 12.1737 0.243478 12.1737 0.608696V5.47826H10.9563V1.64348C8.46067 2.49565 6.63458 4.62609 6.2085 7.24348C6.69545 6.87826 7.30415 6.69565 7.91284 6.69565H18.8694Z" fill="#319F1C"/>
<path d="M16.3741 25.5652H15.5219C15.2176 25.5652 14.9741 25.7478 14.9132 26.0522L14.7915 26.7826H16.8611C17.2263 26.7826 17.6524 26.6609 17.9567 26.4174L21.9132 23.4957V21.9739L20.8176 21.5479L18.8698 24.287C18.3219 25.0783 17.4089 25.5652 16.3741 25.5652Z" fill="#319F1C"/>
<path d="M25.5652 20.4522C25.5652 20.2087 25.0782 19.8435 24.3478 19.8435C23.6173 19.8435 23.1304 20.2087 23.1304 20.4522V26.0522L25.5652 22.6435V20.4522Z" fill="#319F1C"/>
<path d="M7.30431 14.3653V14.7305C7.30431 16.3131 8.15648 17.7131 9.49561 18.4436L11.3217 19.4175C12.6 20.087 14.1217 20.087 15.4 19.4175L17.226 18.4436C18.5652 17.7131 19.4174 16.2522 19.4174 14.7305V14.3653L20.513 13.6957C20.5739 13.6349 20.6347 13.574 20.6347 13.4522V11.7479C20.6347 11.6262 20.513 11.5044 20.3304 11.5044C20.2695 11.5044 20.2087 11.5044 20.2087 11.5653L19.4782 12.4175V10.3479H7.30431V12.4175L6.513 11.6262C6.39126 11.5044 6.20865 11.5653 6.14778 11.6262C6.08691 11.687 6.08691 11.7479 6.08691 11.7479V13.4522C6.08691 13.5131 6.14778 13.6349 6.20865 13.6957L7.30431 14.3653Z" fill="#319F1C"/>
<path d="M25.5652 31.6521V28.7913L23.6782 31.6521H25.5652Z" fill="#319F1C"/>
<path d="M26.7827 23.0696V23.1305H26.7218L18.8696 34.087H28.0001V21.3652L26.7827 23.0696ZM26.7827 32.8696H21.3653L26.7827 24.7739V32.8696Z" fill="#319F1C"/>
<path d="M21.913 25.0173L18.6261 27.3912C18.0783 27.7565 17.4696 27.9999 16.8609 27.9999H14V34.0869H17.3478L21.913 27.7565V25.0173Z" fill="#319F1C"/>
<path d="M5.47803 32.8696H9.7389V34.087H5.47803V32.8696Z" fill="#319F1C"/>
<path d="M5.47803 30.4348H9.7389V31.6522H5.47803V30.4348Z" fill="#319F1C"/>
<path d="M15.5826 24.3478H16.4348C17.0435 24.3478 17.5913 24.0434 17.8957 23.5565L19.6609 21.1217L16.9217 20.0869L16.0087 20.5739C14.3652 21.4869 12.4174 21.4869 10.7739 20.5739L9.86088 20.0869L7.18262 21.1826L8.88697 23.5565C9.25218 24.0434 9.80001 24.3478 10.3478 24.3478H11.2C12.0522 24.3478 12.7826 24.8956 12.9652 25.7478L13.3913 27.3304L13.8174 25.7478C14 24.8956 14.7304 24.3478 15.5826 24.3478Z" fill="#319F1C"/>
<path d="M8.15652 27.3913L2.43478 23.2522C0.913043 24.287 0 25.9913 0 27.8174V34.087H4.26087V29.2174H5.29565L4.86957 27.5131L6.02609 27.2087L6.51304 29.1565H10.9565V34.0261H12.7826V28H9.92174C9.25217 28 8.64348 27.8174 8.15652 27.3913Z" fill="#319F1C"/>
</svg>
