<svg width="27" height="47" viewBox="0 0 27 47" fill="none" xmlns="http://www.w3.org/2000/svg">
<path d="M7.31828 25.6362L14.7956 25.6362C15.6859 25.6362 16.4427 25.9476 17.0658 26.5708C17.6887 27.194 18.0005 27.9505 18.0005 28.841L18.0005 29.9087C18.0005 32.2677 17.1658 34.2815 15.4966 35.9508C13.8274 37.6194 11.8133 38.4541 9.45449 38.4541L7.31828 38.4541C6.73977 38.4541 6.23925 38.6656 5.81624 39.0883C5.39347 39.5112 5.18208 40.0117 5.18208 40.5903L5.18208 44.8634C5.18208 45.4419 5.39358 45.9429 5.81624 46.3658C6.23913 46.7881 6.73966 47 7.31828 47L9.45449 47C11.7691 47 13.9773 46.5489 16.0806 45.6481C18.1836 44.7466 20.0026 43.5281 21.5383 41.9924C23.0739 40.4574 24.2921 38.6383 25.1934 36.535C26.0947 34.432 26.5454 32.2232 26.5454 29.9088L26.5454 6.40933C26.5454 4.62809 25.9226 3.11563 24.6764 1.86894C23.43 0.622944 21.9164 -4.04681e-07 20.1362 -5.6031e-07L7.31747 -1.68096e-06C5.53739 -1.83658e-06 4.02424 0.622942 2.77778 1.86894C1.53179 3.11563 0.908619 4.62808 0.908619 6.40933L0.908618 19.2269C0.908617 21.0078 1.53179 22.5203 2.7786 23.7671C4.02448 25.013 5.53821 25.6362 7.31828 25.6362Z" fill="#319F1C"/>
</svg>
