<svg width="27" height="47" viewBox="0 0 27 47" fill="none" xmlns="http://www.w3.org/2000/svg">
<path d="M24.6776 23.2329C23.4317 21.987 21.9184 21.3638 20.1379 21.3638H12.6606C11.7709 21.3638 11.0134 21.0524 10.3913 20.4292C9.76785 19.806 9.45661 19.0495 9.45661 18.159V17.0913C9.45661 14.7323 10.2913 12.7185 11.9597 11.0492C13.6282 9.38057 15.6423 8.54589 18.0023 8.54589H20.138C20.7166 8.54589 21.2175 8.33438 21.6401 7.91173C22.0626 7.48883 22.2748 6.98831 22.2748 6.40968V2.13656C22.2748 1.55805 22.0627 1.05706 21.6401 0.634164C21.2176 0.211856 20.7167 0 20.138 0H18.0023C15.6863 0 13.4786 0.45107 11.3748 1.35192C9.27212 2.25336 7.45369 3.47188 5.91798 5.0076C4.38226 6.54262 3.16351 8.36174 2.26254 10.465C1.36146 12.568 0.910156 14.7768 0.910156 17.0912V40.5907C0.910156 42.3719 1.53356 43.8844 2.77944 45.1311C4.02543 46.3771 5.5387 47 7.31912 47H20.1372C21.9177 47 23.4309 46.3771 24.6767 45.1311C25.9235 43.8844 26.5457 42.3719 26.5457 40.5907V27.7731C26.5458 25.9921 25.9235 24.4797 24.6776 23.2329Z" fill="#319F1C"/>
</svg>
