<svg width="36" height="44" viewBox="0 0 36 44" fill="none" xmlns="http://www.w3.org/2000/svg">
<path d="M12.7567 34.4348H15.4175L15.1828 33.4956C15.1045 33.1826 14.7915 32.8695 14.4001 32.8695H13.3045C12.0523 32.8695 10.8784 32.2435 10.0958 31.2261L7.66971 27.8608L4.6958 29.113L11.4262 33.9652C11.7393 34.2782 12.2871 34.4348 12.7567 34.4348Z" fill="#319F1C"/>
<path d="M24.2607 10.1738H10.1737C9.15633 10.1738 8.29547 10.7999 7.98242 11.739H26.452C26.1389 10.7999 25.2781 10.1738 24.2607 10.1738Z" fill="#319F1C"/>
<path d="M24.2607 8.6087C25.0433 8.6087 25.8259 8.84348 26.452 9.31304C25.8259 6.02609 23.5563 3.2087 20.3476 2.11304V7.04348H18.7824V0.782609C18.7824 0.313043 18.4694 0 17.9998 0H16.4346C15.965 0 15.652 0.313043 15.652 0.782609V7.04348H14.0868V2.11304C10.8781 3.2087 8.53025 5.94782 7.98242 9.31304C8.60851 8.84348 9.39112 8.6087 10.1737 8.6087H24.2607Z" fill="#319F1C"/>
<path d="M21.0524 32.8698H19.9567C19.5654 32.8698 19.2524 33.1046 19.1741 33.4959L19.0176 34.435H21.6784C22.148 34.435 22.6958 34.2785 23.0871 33.9655L28.1741 30.2089V28.2524L26.7654 27.7046L24.2611 31.2263C23.5567 32.2437 22.3828 32.8698 21.0524 32.8698Z" fill="#319F1C"/>
<path d="M32.8697 26.2958C32.8697 25.9827 32.2436 25.5132 31.3045 25.5132C30.3653 25.5132 29.7393 25.9827 29.7393 26.2958V33.4958L32.8697 29.1132V26.2958Z" fill="#319F1C"/>
<path d="M9.39139 18.4694V18.939C9.39139 20.9738 10.487 22.7738 12.2088 23.7129L14.5566 24.9651C16.2001 25.8259 18.1566 25.8259 19.8001 24.9651L22.1479 23.7129C23.8696 22.7738 24.9653 20.8955 24.9653 18.939V18.4694L26.374 17.6085C26.4523 17.5303 26.5305 17.452 26.5305 17.2955V15.1042C26.5305 14.9477 26.374 14.7912 26.1392 14.7912C26.061 14.7912 25.9827 14.7912 25.9827 14.8694L25.0436 15.9651V13.3042H9.39139V15.9651L8.374 14.9477C8.21748 14.7912 7.98269 14.8694 7.90443 14.9477C7.82617 15.0259 7.82617 15.1042 7.82617 15.1042V17.2955C7.82617 17.3738 7.90443 17.5303 7.98269 17.6085L9.39139 18.4694Z" fill="#319F1C"/>
<path d="M32.8694 40.6958V37.0176L30.4434 40.6958H32.8694Z" fill="#319F1C"/>
<path d="M34.4347 29.661V29.7393H34.3564L24.2607 43.8263H35.9999V27.4697L34.4347 29.661ZM34.4347 42.261H27.4694L34.4347 31.8523V42.261Z" fill="#319F1C"/>
<path d="M28.1739 32.165L23.9478 35.2172C23.2435 35.6868 22.4609 35.9998 21.6783 35.9998H18V43.8259H22.3043L28.1739 35.6868V32.165Z" fill="#319F1C"/>
<path d="M7.04346 42.2607H12.5217V43.826H7.04346V42.2607Z" fill="#319F1C"/>
<path d="M7.04346 39.1304H12.5217V40.6956H7.04346V39.1304Z" fill="#319F1C"/>
<path d="M20.0349 31.3044H21.1305C21.9131 31.3044 22.6175 30.9131 23.0088 30.287L25.2783 27.1566L21.7566 25.8262L20.5827 26.4523C18.4696 27.6262 15.9653 27.6262 13.8523 26.4523L12.6783 25.8262L9.23486 27.2349L11.4262 30.287C11.8957 30.9131 12.6001 31.3044 13.3044 31.3044H14.4001C15.4957 31.3044 16.4349 32.0088 16.6696 33.1044L17.2175 35.1392L17.7653 33.1044C18.0001 32.0088 18.9392 31.3044 20.0349 31.3044Z" fill="#319F1C"/>
<path d="M10.487 35.2172L3.13043 29.8955C1.17391 31.2259 0 33.4172 0 35.7651V43.8259H5.47826V37.5651H6.8087L6.26087 35.3738L7.74783 34.9825L8.37391 37.4868H14.087V43.7477H16.4348V35.9999H12.7565C11.8957 35.9999 11.113 35.7651 10.487 35.2172Z" fill="#319F1C"/>
</svg>
