<svg width="36" height="36" viewBox="0 0 36 36" fill="none" xmlns="http://www.w3.org/2000/svg">
<path d="M27.9078 0H8.09215C6.18253 0 4.62891 1.55363 4.62891 3.46324V32.5368C4.62891 34.4464 6.18253 36 8.09215 36H27.9078C29.8174 36 31.371 34.4464 31.371 32.5368V3.46324C31.371 1.55363 29.8174 0 27.9078 0ZM9.37563 5.98331C9.37563 5.40084 9.84785 4.92863 10.4303 4.92863H25.5695C26.152 4.92863 26.6242 5.40084 26.6242 5.98331V8.06583C26.6242 8.6483 26.152 9.12052 25.5695 9.12052H10.4303C9.84785 9.12052 9.37563 8.6483 9.37563 8.06583V5.98331ZM12.9265 29.666C12.9265 30.2484 12.4543 30.7207 11.8718 30.7207H10.4304C9.84792 30.7207 9.3757 30.2484 9.3757 29.666V28.6667C9.3757 28.0842 9.84792 27.612 10.4304 27.612H11.8718C12.4543 27.612 12.9265 28.0842 12.9265 28.6667V29.666ZM12.9265 23.4243C12.9265 24.0068 12.4543 24.479 11.8718 24.479H10.4304C9.84792 24.479 9.3757 24.0068 9.3757 23.4243V22.425C9.3757 21.8426 9.84792 21.3704 10.4304 21.3704H11.8718C12.4543 21.3704 12.9265 21.8426 12.9265 22.425V23.4243ZM19.8618 29.666C19.8618 30.2484 19.3895 30.7207 18.8071 30.7207H17.3657C16.7831 30.7207 16.311 30.2484 16.311 29.666V28.6667C16.311 28.0842 16.7831 27.612 17.3657 27.612H18.8071C19.3895 27.612 19.8618 28.0842 19.8618 28.6667V29.666ZM19.8618 23.4243C19.8618 24.0068 19.3895 24.479 18.8071 24.479H17.3657C16.7831 24.479 16.311 24.0068 16.311 23.4243V22.425C16.311 21.8426 16.7831 21.3704 17.3657 21.3704H18.8071C19.3895 21.3704 19.8618 21.8426 19.8618 22.425V23.4243ZM19.8618 17.1826C19.8618 17.7652 19.3895 18.2373 18.8071 18.2373H10.4303C9.84785 18.2373 9.37563 17.7651 9.37563 17.1826V16.1833C9.37563 15.6009 9.84785 15.1286 10.4303 15.1286H18.8071C19.3895 15.1286 19.8618 15.6009 19.8618 16.1833V17.1826ZM26.797 29.666C26.797 30.2484 26.3248 30.7207 25.7423 30.7207H24.3009C23.7185 30.7207 23.2463 30.2484 23.2463 29.666V28.6667C23.2463 28.0842 23.7185 27.612 24.3009 27.612H25.7423C26.3248 27.612 26.797 28.0842 26.797 28.6667V29.666ZM26.797 23.4243C26.797 24.0068 26.3248 24.479 25.7423 24.479H24.3009C23.7185 24.479 23.2463 24.0068 23.2463 23.4243V22.425C23.2463 21.8426 23.7185 21.3704 24.3009 21.3704H25.7423C26.3248 21.3704 26.797 21.8426 26.797 22.425V23.4243ZM26.797 17.1826C26.797 17.7652 26.3248 18.2373 25.7423 18.2373H24.3009C23.7185 18.2373 23.2463 17.7651 23.2463 17.1826V16.1833C23.2463 15.6009 23.7185 15.1286 24.3009 15.1286H25.7423C26.3248 15.1286 26.797 15.6009 26.797 16.1833V17.1826Z" fill="#319F1C"/>
</svg>
