<svg width="25" height="27" viewBox="0 0 25 27" fill="none" xmlns="http://www.w3.org/2000/svg">
<path fill-rule="evenodd" clip-rule="evenodd" d="M4.54586 20.2044C5.02154 20.459 6.40168 20.9949 6.46868 21.2428L6.48878 26.214C6.99125 26.1604 7.69472 25.1018 7.99621 24.7669C11.748 20.5393 10.1133 22.2009 15.1314 21.6716C16.4445 21.5309 17.6505 21.3768 18.9368 20.9949C20.384 20.5661 21.8378 19.8292 22.615 18.7505C24.8996 15.5615 24.7857 10.1079 24.0353 6.28237C23.5797 3.94417 22.2867 2.32285 20.0892 1.32459C17.5835 0.17894 12.753 -0.243142 9.67784 0.18564C6.75006 0.594322 3.44041 1.60598 2.01337 4.38635C0.747128 6.87195 0.579635 11.6555 1.10891 14.7776C1.4975 17.0622 2.54265 19.1123 4.54586 20.2044ZM8.98107 14.188C7.40664 12.4997 5.859 10.1548 5.01484 7.8769C4.39177 6.19528 5.24263 4.64764 7.07165 4.20546C7.73492 4.04467 8.12351 4.37966 8.49199 4.75484C8.82027 5.08982 9.15526 5.47841 9.43665 5.87369C9.71804 6.26227 10.0262 6.71115 10.2406 7.12653C11.1518 8.88186 9.78503 8.82156 9.26915 9.65902C8.55899 10.8181 10.455 12.9486 11.1853 13.565C11.7011 13.9937 13.1818 15.0456 13.9924 14.7843C14.448 14.6302 14.6758 14.0607 15.0376 13.7592C16.0359 12.9218 17.1413 13.9334 17.8716 14.4292C18.2937 14.724 18.6152 14.9786 19.0239 15.3002C19.4326 15.6285 19.8212 16.0036 19.7743 16.5865C19.6872 17.6384 17.9453 19.5813 16.3239 19.0989C15.4999 18.851 14.2872 18.2078 13.5637 17.7724C11.7748 16.7138 10.3009 15.5883 8.98107 14.188ZM12.9808 6.53696C12.5922 6.40297 12.6257 5.87369 12.9808 5.77319C13.4565 5.6325 14.7026 6.04788 15.0577 6.21537C16.1967 6.77145 17.1413 7.68261 17.5567 8.90196C17.684 9.28384 18.0592 10.8784 17.5299 11.0258C17.0073 11.1665 17.0207 10.6975 16.9805 10.3223C16.88 9.39104 16.5115 8.26548 15.7947 7.63571C14.7696 6.71785 13.4364 6.69775 12.9808 6.53696ZM13.3828 8.29898C13.2086 8.17839 13.2421 7.8769 13.3627 7.73621C13.6642 7.39452 14.8768 7.60221 15.6272 8.68087C15.9957 9.20344 16.4914 10.5903 15.4396 10.4429C15.0175 9.90021 15.3726 9.19004 14.4346 8.64737C14.113 8.45978 13.5302 8.40618 13.3828 8.29898ZM12.1835 4.57395C12.0629 4.39305 12.1701 4.09157 12.3845 3.99107C12.6324 3.85708 13.8183 4.03797 14.1063 4.10497C16.4445 4.62084 18.354 6.35607 19.2182 8.60047C19.3924 9.04935 20.0088 11.5081 19.4125 11.7225C18.7224 11.9704 18.8363 10.9521 18.7693 10.5099C18.6688 9.91361 18.5683 9.50493 18.4009 8.94885C17.5835 6.18188 15.5267 5.24392 12.9473 4.78164C12.7128 4.73474 12.3242 4.78164 12.1835 4.57395Z" fill="#319F1C"/>
</svg>
